<?xml version="1.0" encoding="UTF-8"?>
<!-- Generated by SVGo -->
<svg width="276.901mm" height="105.450mm" viewBox="0.000 0.000 276.901 105.450" xmlns="http://www.w3.org/2000/svg" xmlns:xlink="http://www.w3.org/1999/xlink">
<polygon points="271.901,100.450 5.000,100.450 5.000,5.000 271.901,5.000" style="fill:none;stroke-width:0.050000mm;stroke:black"/>
<polygon points="7.725,83.924 7.725,97.725 21.525,97.725 21.525,83.924" style="fill:none;stroke-width:0.050000mm;stroke:black"/>
<polygon points="26.775,83.924 26.775,97.725 40.574,97.725 40.574,83.924" style="fill:none;stroke-width:0.050000mm;stroke:black"/>
<polygon points="45.824,83.924 45.824,97.725 59.624,97.725 59.624,83.924" style="fill:none;stroke-width:0.050000mm;stroke:black"/>
<polygon points="64.873,83.924 64.873,97.725 78.675,97.725 78.675,83.924" style="fill:none;stroke-width:0.050000mm;stroke:black"/>
<polygon points="83.924,83.924 83.924,97.725 97.725,97.725 97.725,83.924" style="fill:none;stroke-width:0.050000mm;stroke:black"/>
<polygon points="102.974,83.924 102.974,97.725 116.774,97.725 116.774,83.924" style="fill:none;stroke-width:0.050000mm;stroke:black"/>
<polygon points="122.024,83.924 122.024,97.725 135.825,97.725 135.825,83.924" style="fill:none;stroke-width:0.050000mm;stroke:black"/>
<polygon points="141.075,83.924 141.075,97.725 154.875,97.725 154.875,83.924" style="fill:none;stroke-width:0.050000mm;stroke:black"/>
<polygon points="160.125,83.924 160.125,97.725 173.925,97.725 173.925,83.924" style="fill:none;stroke-width:0.050000mm;stroke:black"/>
<polygon points="179.175,83.924 179.175,97.725 192.975,97.725 192.975,83.924" style="fill:none;stroke-width:0.050000mm;stroke:black"/>
<polygon points="198.225,83.924 198.225,97.725 212.025,97.725 212.025,83.924" style="fill:none;stroke-width:0.050000mm;stroke:black"/>
<polygon points="217.275,83.924 217.275,97.725 231.075,97.725 231.075,83.924" style="fill:none;stroke-width:0.050000mm;stroke:black"/>
<polygon points="236.325,83.924 236.325,97.725 250.125,97.725 250.125,83.924" style="fill:none;stroke-width:0.050000mm;stroke:black"/>
<polygon points="255.375,83.924 255.375,97.725 269.175,97.725 269.175,83.924" style="fill:none;stroke-width:0.050000mm;stroke:black"/>
<polygon points="7.725,64.873 7.725,78.675 21.525,78.675 21.525,64.873" style="fill:none;stroke-width:0.050000mm;stroke:black"/>
<polygon points="26.775,64.873 26.775,78.675 40.574,78.675 40.574,64.873" style="fill:none;stroke-width:0.050000mm;stroke:black"/>
<polygon points="45.824,64.873 45.824,78.675 59.624,78.675 59.624,64.873" style="fill:none;stroke-width:0.050000mm;stroke:black"/>
<polygon points="64.873,64.873 64.873,78.675 78.675,78.675 78.675,64.873" style="fill:none;stroke-width:0.050000mm;stroke:black"/>
<polygon points="83.924,64.873 83.924,78.675 97.725,78.675 97.725,64.873" style="fill:none;stroke-width:0.050000mm;stroke:black"/>
<polygon points="102.974,64.873 102.974,78.675 116.774,78.675 116.774,64.873" style="fill:none;stroke-width:0.050000mm;stroke:black"/>
<polygon points="122.024,64.873 122.024,78.675 135.825,78.675 135.825,64.873" style="fill:none;stroke-width:0.050000mm;stroke:black"/>
<polygon points="141.075,64.873 141.075,78.675 154.875,78.675 154.875,64.873" style="fill:none;stroke-width:0.050000mm;stroke:black"/>
<polygon points="160.125,64.873 160.125,78.675 173.925,78.675 173.925,64.873" style="fill:none;stroke-width:0.050000mm;stroke:black"/>
<polygon points="179.175,64.873 179.175,78.675 192.975,78.675 192.975,64.873" style="fill:none;stroke-width:0.050000mm;stroke:black"/>
<polygon points="198.225,64.873 198.225,78.675 212.025,78.675 212.025,64.873" style="fill:none;stroke-width:0.050000mm;stroke:black"/>
<polygon points="217.275,64.873 217.275,78.675 231.075,78.675 231.075,64.873" style="fill:none;stroke-width:0.050000mm;stroke:black"/>
<polygon points="236.325,64.873 236.325,78.675 250.125,78.675 250.125,64.873" style="fill:none;stroke-width:0.050000mm;stroke:black"/>
<polygon points="255.375,64.873 255.375,78.675 269.175,78.675 269.175,64.873" style="fill:none;stroke-width:0.050000mm;stroke:black"/>
<polygon points="7.725,45.824 7.725,59.624 21.525,59.624 21.525,45.824" style="fill:none;stroke-width:0.050000mm;stroke:black"/>
<polygon points="26.775,45.824 26.775,59.624 40.574,59.624 40.574,45.824" style="fill:none;stroke-width:0.050000mm;stroke:black"/>
<polygon points="45.824,45.824 45.824,59.624 59.624,59.624 59.624,45.824" style="fill:none;stroke-width:0.050000mm;stroke:black"/>
<polygon points="64.873,45.824 64.873,59.624 78.675,59.624 78.675,45.824" style="fill:none;stroke-width:0.050000mm;stroke:black"/>
<polygon points="83.924,45.824 83.924,59.624 97.725,59.624 97.725,45.824" style="fill:none;stroke-width:0.050000mm;stroke:black"/>
<polygon points="102.974,45.824 102.974,59.624 116.774,59.624 116.774,45.824" style="fill:none;stroke-width:0.050000mm;stroke:black"/>
<polygon points="122.024,45.824 122.024,59.624 135.825,59.624 135.825,45.824" style="fill:none;stroke-width:0.050000mm;stroke:black"/>
<polygon points="141.075,45.824 141.075,59.624 154.875,59.624 154.875,45.824" style="fill:none;stroke-width:0.050000mm;stroke:black"/>
<polygon points="160.125,45.824 160.125,59.624 173.925,59.624 173.925,45.824" style="fill:none;stroke-width:0.050000mm;stroke:black"/>
<polygon points="179.175,45.824 179.175,59.624 192.975,59.624 192.975,45.824" style="fill:none;stroke-width:0.050000mm;stroke:black"/>
<polygon points="198.225,45.824 198.225,59.624 212.025,59.624 212.025,45.824" style="fill:none;stroke-width:0.050000mm;stroke:black"/>
<polygon points="217.275,45.824 217.275,59.624 231.075,59.624 231.075,45.824" style="fill:none;stroke-width:0.050000mm;stroke:black"/>
<polygon points="236.325,45.824 236.325,59.624 250.125,59.624 250.125,45.824" style="fill:none;stroke-width:0.050000mm;stroke:black"/>
<polygon points="255.375,45.824 255.375,59.624 269.175,59.624 269.175,45.824" style="fill:none;stroke-width:0.050000mm;stroke:black"/>
<polygon points="7.725,26.775 7.725,40.574 21.525,40.574 21.525,26.775" style="fill:none;stroke-width:0.050000mm;stroke:black"/>
<polygon points="26.775,26.775 26.775,40.574 40.574,40.574 40.574,26.775" style="fill:none;stroke-width:0.050000mm;stroke:black"/>
<polygon points="45.824,26.775 45.824,40.574 59.624,40.574 59.624,26.775" style="fill:none;stroke-width:0.050000mm;stroke:black"/>
<polygon points="64.873,26.775 64.873,40.574 78.675,40.574 78.675,26.775" style="fill:none;stroke-width:0.050000mm;stroke:black"/>
<polygon points="83.924,26.775 83.924,40.574 97.725,40.574 97.725,26.775" style="fill:none;stroke-width:0.050000mm;stroke:black"/>
<polygon points="102.974,26.775 102.974,40.574 116.774,40.574 116.774,26.775" style="fill:none;stroke-width:0.050000mm;stroke:black"/>
<polygon points="122.024,26.775 122.024,40.574 135.825,40.574 135.825,26.775" style="fill:none;stroke-width:0.050000mm;stroke:black"/>
<polygon points="141.075,26.775 141.075,40.574 154.875,40.574 154.875,26.775" style="fill:none;stroke-width:0.050000mm;stroke:black"/>
<polygon points="160.125,26.775 160.125,40.574 173.925,40.574 173.925,26.775" style="fill:none;stroke-width:0.050000mm;stroke:black"/>
<polygon points="179.175,26.775 179.175,40.574 192.975,40.574 192.975,26.775" style="fill:none;stroke-width:0.050000mm;stroke:black"/>
<polygon points="198.225,26.775 198.225,40.574 212.025,40.574 212.025,26.775" style="fill:none;stroke-width:0.050000mm;stroke:black"/>
<polygon points="217.275,26.775 217.275,40.574 231.075,40.574 231.075,26.775" style="fill:none;stroke-width:0.050000mm;stroke:black"/>
<polygon points="236.325,26.775 236.325,40.574 250.125,40.574 250.125,26.775" style="fill:none;stroke-width:0.050000mm;stroke:black"/>
<polygon points="255.375,26.775 255.375,40.574 269.175,40.574 269.175,26.775" style="fill:none;stroke-width:0.050000mm;stroke:black"/>
<polygon points="7.725,7.725 7.725,21.525 21.525,21.525 21.525,7.725" style="fill:none;stroke-width:0.050000mm;stroke:black"/>
<polygon points="26.775,7.725 26.775,21.525 40.574,21.525 40.574,7.725" style="fill:none;stroke-width:0.050000mm;stroke:black"/>
<polygon points="45.824,7.725 45.824,21.525 59.624,21.525 59.624,7.725" style="fill:none;stroke-width:0.050000mm;stroke:black"/>
<polygon points="64.873,7.725 64.873,21.525 78.675,21.525 78.675,7.725" style="fill:none;stroke-width:0.050000mm;stroke:black"/>
<polygon points="83.924,7.725 83.924,21.525 97.725,21.525 97.725,7.725" style="fill:none;stroke-width:0.050000mm;stroke:black"/>
<polygon points="102.974,7.725 102.974,21.525 116.774,21.525 116.774,7.725" style="fill:none;stroke-width:0.050000mm;stroke:black"/>
<polygon points="122.024,7.725 122.024,21.525 135.825,21.525 135.825,7.725" style="fill:none;stroke-width:0.050000mm;stroke:black"/>
<polygon points="141.075,7.725 141.075,21.525 154.875,21.525 154.875,7.725" style="fill:none;stroke-width:0.050000mm;stroke:black"/>
<polygon points="160.125,7.725 160.125,21.525 173.925,21.525 173.925,7.725" style="fill:none;stroke-width:0.050000mm;stroke:black"/>
<polygon points="179.175,7.725 179.175,21.525 192.975,21.525 192.975,7.725" style="fill:none;stroke-width:0.050000mm;stroke:black"/>
<polygon points="198.225,7.725 198.225,21.525 212.025,21.525 212.025,7.725" style="fill:none;stroke-width:0.050000mm;stroke:black"/>
<polygon points="217.275,7.725 217.275,21.525 231.075,21.525 231.075,7.725" style="fill:none;stroke-width:0.050000mm;stroke:black"/>
<polygon points="236.325,7.725 236.325,21.525 250.125,21.525 250.125,7.725" style="fill:none;stroke-width:0.050000mm;stroke:black"/>
<polygon points="255.375,7.725 255.375,21.525 269.175,21.525 269.175,7.725" style="fill:none;stroke-width:0.050000mm;stroke:black"/>
</svg>